<?xml version="1.0" encoding="UTF-8" standalone="no"?>
<!-- Created with Inkscape (http://www.inkscape.org/) -->

<svg
   xmlns:dc="http://purl.org/dc/elements/1.1/"
   xmlns:cc="http://creativecommons.org/ns#"
   xmlns:rdf="http://www.w3.org/1999/02/22-rdf-syntax-ns#"
   xmlns:svg="http://www.w3.org/2000/svg"
   xmlns="http://www.w3.org/2000/svg"
   xmlns:sodipodi="http://sodipodi.sourceforge.net/DTD/sodipodi-0.dtd"
   xmlns:inkscape="http://www.inkscape.org/namespaces/inkscape"
   width="500"
   height="500"
   viewBox="0 0 500.00001 500.00001"
   id="svg2"
   version="1.1"
   inkscape:version="0.91 r13725"
   inkscape:export-filename="/home/luca/Progetti/music-player/data/generic-artist.png"
   inkscape:export-xdpi="90"
   inkscape:export-ydpi="90"
   sodipodi:docname="generic-artist.svg">
  <defs
     id="defs4" />
  <sodipodi:namedview
     id="base"
     pagecolor="#ffffff"
     bordercolor="#666666"
     borderopacity="1.0"
     inkscape:pageopacity="0.0"
     inkscape:pageshadow="2"
     inkscape:zoom="1"
     inkscape:cx="326.21407"
     inkscape:cy="104.8482"
     inkscape:document-units="px"
     inkscape:current-layer="layer1"
     showgrid="false"
     showguides="true"
     inkscape:guide-bbox="true"
     units="px"
     inkscape:window-width="1366"
     inkscape:window-height="732"
     inkscape:window-x="1366"
     inkscape:window-y="0"
     inkscape:window-maximized="1">
    <sodipodi:guide
       position="0,890.95456"
       orientation="1,0"
       id="guide4149" />
    <sodipodi:guide
       position="500.00391,1088.7227"
       orientation="1,0"
       id="guide4151" />
    <sodipodi:guide
       position="-446.48743,0"
       orientation="0,1"
       id="guide4153" />
    <sodipodi:guide
       position="-597.00782,500.00001"
       orientation="0,1"
       id="guide4157" />
    <sodipodi:guide
       position="452.54835,409.06128"
       orientation="0.70710678,0.70710678"
       id="guide4139" />
  </sodipodi:namedview>
  <metadata
     id="metadata7">
    <rdf:RDF>
      <cc:Work
         rdf:about="">
        <dc:format>image/svg+xml</dc:format>
        <dc:type
           rdf:resource="http://purl.org/dc/dcmitype/StillImage" />
        <dc:title />
      </cc:Work>
    </rdf:RDF>
  </metadata>
  <g
     inkscape:label="Livello 1"
     inkscape:groupmode="layer"
     id="layer1"
     transform="translate(0,-552.36216)">
    <rect
       style="fill:#00a9d8;fill-opacity:1;stroke:none"
       id="rect4159"
       width="500.00391"
       height="500"
       x="0"
       y="552.36218" />
    <path
       style="fill:#000000;fill-rule:evenodd;stroke:none;stroke-width:1px;stroke-linecap:butt;stroke-linejoin:miter;stroke-opacity:1;fill-opacity:0.27843139"
       d="m 274,1081.3622 -44,-267.00004 108,-24 47,-108 -14,-36 43.54135,-26.74935 7.95495,0 9.65226,3.28829 L 611.80481,802.55735 570,1124.3622 Z"
       id="path4141"
       inkscape:connector-curvature="0"
       inkscape:export-filename="/home/luca/Progetti/music-player/data/generic-artist.png"
       inkscape:export-xdpi="90"
       inkscape:export-ydpi="90" />
    <path
       style="fill:#373737;fill-opacity:1"
       d="m 59.135037,1203.9459 c 0,-0.6057 2.125757,-2.5563 8.34578,-7.6581 2.467645,-2.024 5.622691,-5.152 7.011215,-6.9511 1.388535,-1.7991 3.240205,-4.0354 4.114829,-4.9695 0.874615,-0.9341 1.838086,-2.4794 2.141046,-3.4339 0.302949,-0.9545 1.634554,-2.8956 2.959116,-4.3136 1.324572,-1.4179 2.168856,-2.9655 1.876188,-3.4391 -0.305264,-0.4939 -0.142098,-0.6199 0.382715,-0.2956 0.537207,0.3321 1.855229,-0.8511 3.19301,-2.8662 1.252997,-1.8875 2.830172,-4.2434 3.504836,-5.2355 8.261368,-12.1477 13.236338,-20.1047 16.604828,-26.5575 2.23052,-4.2728 4.50336,-8.3208 5.05075,-8.9955 0.84048,-1.0359 5.30886,-10.0575 6.27806,-12.6754 0.16653,-0.4498 1.58554,-2.8093 3.15337,-5.2434 1.56782,-2.434 2.6666,-4.4701 2.44171,-4.5244 -0.22489,-0.055 0.9711,-2.0197 2.65776,-4.3674 1.68666,-2.3477 3.06892,-5.0957 3.07169,-6.1067 0.002,-1.0109 0.55477,-2.8921 1.22666,-4.1804 0.67189,-1.2883 1.22162,-3.2321 1.22162,-4.3196 0,-1.0874 0.50974,-3.1971 1.13274,-4.6882 0.62302,-1.4911 1.40325,-4.6778 1.73385,-7.0815 0.33059,-2.4038 1.03388,-4.8033 1.56287,-5.3323 0.52897,-0.529 1.44059,-2.5745 2.02584,-4.5455 0.58524,-1.9711 1.39621,-4.2227 1.80215,-5.0038 0.40594,-0.7809 0.74531,-3.1729 0.75415,-5.3154 0.0214,-5.188 1.91695,-15.7133 3.28348,-18.2323 0.60236,-1.1104 1.36359,-3.9579 1.69164,-6.3281 0.32806,-2.37 1.55308,-5.866 2.72227,-7.7688 1.1692,-1.9028 2.46581,-4.0116 2.88134,-4.6863 0.41555,-0.6746 1.71896,-3.4335 2.89647,-6.1308 1.17751,-2.6974 2.9198,-5.7334 3.87178,-6.7467 0.95196,-1.0133 1.39069,-1.848 0.97496,-1.8549 -0.41574,-0.01 -0.34894,-0.2829 0.14844,-0.6133 0.49738,-0.3305 1.30511,-3.3352 1.79496,-6.67728 0.83805,-5.71774 0.79065,-6.16316 -0.80309,-7.54539 -1.61347,-1.39936 -1.63566,-1.64526 -0.46825,-5.19132 1.32622,-4.02846 0.63776,-7.78854 -1.97677,-10.79629 -0.7009,-0.80628 -1.4819,-2.82688 -1.73557,-4.49022 -0.25367,-1.66333 -1.40746,-4.41675 -2.56395,-6.11868 -1.1565,-1.70196 -2.10273,-3.57655 -2.10273,-4.16579 0,-1.17603 -0.23596,-1.51644 -4.41972,-6.37603 -1.57646,-1.8311 -3.19782,-4.8049 -3.60306,-6.60843 -0.40522,-1.80353 -1.10472,-3.93661 -1.55442,-4.74019 -0.65876,-1.17715 -0.92552,-0.64784 -1.3728,2.724 -0.66708,5.02869 -2.49143,5.65687 -3.24809,1.11839 -0.28121,-1.68665 -0.80572,-4.53864 -1.16561,-6.33774 l -0.65432,-3.2711 -0.99984,4.90665 c -1.50914,7.40607 -2.74321,8.48758 -2.09956,1.83998 0.36906,-3.81158 0.25438,-5.51997 -0.37056,-5.51997 -0.51238,0 -0.68225,-0.62089 -0.39152,-1.43111 0.28244,-0.7871 0.2906,-1.23614 0.0181,-0.99787 -0.27246,0.23827 -1.56791,3.3492 -2.87879,6.91317 -1.31089,3.56397 -2.81864,6.62502 -3.35057,6.80233 -0.64339,0.21447 -0.80714,-0.32036 -0.48912,-1.59764 0.60626,-2.43501 -0.69309,-8.51423 -1.7746,-8.30277 -0.44851,0.0877 -1.31289,-1.10829 -1.92085,-2.65776 -1.23811,-3.15548 -2.50056,-3.81194 -1.87929,-0.97723 0.32398,1.47825 0.23102,1.59883 -0.47292,0.61333 -0.7208,-1.0091 -0.89523,-0.86407 -0.98358,0.81778 -0.0893,1.69988 -0.17514,1.76877 -0.5094,0.40888 -0.22112,-0.89955 -0.7229,-2.03219 -1.11509,-2.51697 -0.40856,-0.50504 -0.37099,-2.0742 0.088,-3.67458 0.96236,-3.35558 1.04863,-7.30172 0.1596,-7.30172 -0.3528,0 -1.29563,1.10745 -2.09518,2.46098 -1.26431,2.14033 -1.60695,2.30777 -2.62963,1.28507 -1.44714,-1.44712 -1.50526,-2.65907 -0.15369,-3.20445 0.59062,-0.23831 0.39471,-0.43974 -0.46399,-0.47703 -1.09119,-0.0474 -1.35179,-0.48811 -0.98046,-1.65807 1.26735,-3.99306 2.62603,-32.75217 1.54745,-32.75464 -0.39399,-6.5e-4 -0.79799,-1.3809 -0.89779,-3.06664 -0.33121,-5.59466 -1.13657,-10.01609 -1.82443,-10.01609 -0.37347,0 -0.96262,-1.012 -1.30923,-2.24888 l -0.63021,-2.24888 -0.58834,2.45332 -0.58835,2.45332 -0.0967,-2.65776 c -0.0532,-1.46177 -0.46475,-2.65777 -0.91453,-2.65777 -1.18453,0 -1.42545,8.88225 -0.37153,13.69771 0.22148,1.01199 0.06,1.83999 -0.35878,1.83999 -1.43623,0 -2.44528,-13.47689 -1.46949,-19.62657 0.17843,-1.12444 0.57079,-4.06843 0.87194,-6.5422 0.52831,-4.33982 0.50613,-4.4116 -0.63143,-2.04443 -1.31076,2.72757 -1.54095,2.31256 -1.31917,-2.3783 0.16161,-3.41792 0.19321,-3.61505 1.97816,-12.34162 0.64399,-3.14843 1.59502,-9.03641 2.1134,-13.08439 0.51839,-4.04797 1.24257,-8.73287 1.6093,-10.41086 0.44789,-2.04934 0.30574,-4.06282 -0.43303,-6.13331 -1.29427,-3.62744 -1.48701,-10.66944 -0.40629,-14.84524 1.7731,-6.85101 4.10619,-17.08846 4.58769,-20.13034 0.28478,-1.7991 0.89791,-3.7311 1.3625,-4.29331 0.46461,-0.56222 0.61865,-1.02222 0.34233,-1.02222 -0.27631,0 0.0158,-1.37999 0.64896,-3.06666 0.63325,-1.68665 1.32511,-4.72263 1.53746,-6.74662 0.21236,-2.024 0.21184,-3.21769 -10e-4,-2.65268 -0.213,0.56502 -0.65688,0.86069 -0.98642,0.65703 -0.32951,-0.20366 0.24357,-3.79394 1.27353,-7.9784 1.93713,-7.87001 2.3866,-17.01875 0.88234,-17.95919 -0.59693,-0.37317 -0.57567,-1.2493 0.0695,-2.8622 0.51133,-1.27842 1.12918,-3.61241 1.37301,-5.18662 0.66695,-4.30636 2.77983,-12.83924 4.65737,-18.80879 0.91952,-2.92355 1.74297,-5.86754 1.82989,-6.5422 0.0869,-0.67466 0.56278,-1.96943 1.05747,-2.87726 0.49469,-0.90783 1.16297,-3.05537 1.48507,-4.77232 0.72006,-3.83819 4.0364,-10.79586 9.93101,-20.83508 11.32505,-19.28795 28.2328,-33.37878 43.99512,-36.66531 6.81873,-1.42175 29.75153,-2.82948 31.49966,-1.93362 0.67467,0.34575 2.54219,0.86564 4.15007,1.15534 3.3217,0.59847 6.35547,3.51874 8.47019,8.15328 0.83066,1.82044 2.51846,3.7182 4.00014,4.49776 2.90577,1.52881 8.31319,6.66418 10.94473,10.39409 1.46605,2.07797 2.64386,2.66491 6.93154,3.45428 7.08915,1.30512 8.57141,3.17794 8.26901,10.44784 -0.12669,3.04589 -0.7417,6.11218 -1.42021,7.08091 -0.92717,1.32371 -0.99052,2.09399 -0.28121,3.41934 1.63931,3.06307 1.80394,6.89647 1.5668,22.97851 -0.0747,5.06883 -2.89239,12.79316 -2.8346,10.92312 0.0578,2.02399 2.83977,4.63503 2.75538,6.65902 -0.0845,2.02399 0.0906,5.17241 0.38905,6.99646 0.51668,3.15812 0.37326,3.46271 -3.00367,6.37879 -4.18848,3.61688 -4.53624,3.88716 -7.50161,5.83014 -1.98439,1.30022 -2.21842,1.87026 -1.81959,4.4322 0.33418,2.14661 1.93934,18.48156 2.08164,21.18379 0.008,0.13899 0.43817,-0.01 0.95744,-0.3308 0.55605,-0.34367 0.72322,-0.22608 0.40669,0.28606 -0.29557,0.47827 0.0725,3.20311 0.81788,6.05522 0.74541,2.85211 1.42139,5.92164 1.50217,6.82119 0.14355,1.59836 0.74104,1.63555 26.2807,1.63555 l 26.13381,0 2.46172,-2.03976 c 1.35395,-1.12187 3.99495,-4.02774 5.86889,-6.45747 1.87394,-2.42973 5.39379,-6.48594 7.8219,-9.0138 4.78101,-4.97744 14.12043,-16.4783 15.61148,-19.22448 0.50762,-0.93492 2.95305,-4.82785 5.43427,-8.65093 6.99723,-10.7814 11.07234,-18.70927 13.48052,-26.22556 1.2149,-3.79186 2.56152,-7.33817 2.9925,-7.88069 0.43099,-0.54251 0.51107,-1.42736 0.17797,-1.96633 -0.38314,-0.61994 -0.25879,-0.76559 0.33849,-0.39645 0.57442,0.35501 0.94412,0.0304 0.94412,-0.82866 0,-0.77668 1.67733,-4.51434 3.7274,-8.30593 4.08135,-7.54839 4.31779,-10.81786 0.90834,-12.56081 -2.1342,-1.09101 -13.70332,-9.71494 -14.85792,-11.07547 -0.44977,-0.52999 -2.55223,-1.91602 -4.67214,-3.08007 l -3.85435,-2.11644 -4.93671,2.58775 c -2.7152,1.42326 -4.93672,2.91506 -4.93672,3.3151 0,1.75465 -6.22938,7.54924 -9.09265,8.458 -0.84611,0.26855 -1.5384,0.78068 -1.5384,1.13806 0,0.75151 -8.14642,2.5111 -11.62584,2.5111 -7.26684,0 -13.72515,-7.83926 -13.72515,-16.65998 0,-4.37074 2.27744,-7.97123 7.57445,-11.97472 4.56449,-3.44984 9.38624,-4.89403 16.33983,-4.89403 3.47472,0 6.80698,-0.65916 10.53618,-2.08416 l 5.45417,-2.08416 -0.4358,-3.24916 c -0.34595,-2.57912 -0.0775,-3.62497 1.30165,-5.07138 0.9556,-1.0022 2.64439,-2.83418 3.75287,-4.07106 1.17889,-1.31545 2.86345,-2.24888 4.05854,-2.24888 2.44833,0 6.20896,-1.60081 6.20896,-2.643 0,-2.30882 6.04339,-4.67317 12.26661,-4.79905 2.37939,-0.0481 7.80692,1.56167 11.00841,3.26508 4.27257,2.27328 4.97466,2.21311 13.28667,-1.13856 3.90398,-1.57422 8.27586,-2.86221 9.7153,-2.86221 1.43944,0 5.13991,-0.80027 8.22327,-1.77838 10.5038,-3.33202 13.42701,-3.67798 16.95027,-2.00608 1.54285,0.73213 3.40823,1.33114 4.14528,1.33114 1.75244,0 6.95699,2.70171 9.08709,4.71716 5.06765,4.7949 9.49772,14.70374 11.05176,24.71975 1.00055,6.44877 -0.01,21.26124 -2.12034,31.07835 -2.58788,12.03878 -6.84653,37.67221 -7.33656,44.1598 -0.96093,12.72204 -3.59471,23.95029 -7.19031,30.65362 -1.54101,2.8729 -8.92563,12.74781 -11.82555,15.81346 -1.3652,1.71627 -2.91523,3.13701 -5.1535,5.45406 -1.55089,1.79499 -4.29179,4.74496 -6.0909,6.55552 -7.42388,7.47111 -23.98681,29.92151 -23.44284,31.77587 0.14993,0.51109 -6.5e-4,0.65559 -0.33554,0.32112 -1.52972,-1.52972 -7.60775,10.68748 -10.10111,20.30382 -0.80205,3.09338 -2.37943,11.52426 -4.19459,22.41966 -0.71715,4.30466 -3.27541,14.10831 -6.5855,25.23663 -3.97461,13.36239 -10.77766,22.20638 -19.53922,25.401 -5.63906,2.05611 -14.20324,2.24176 -22.48552,0.48744 -3.14827,-0.66686 -8.96552,-1.21885 -12.92724,-1.22667 l -7.20313,-0.0141 -3.7589,3.55152 c -3.56035,3.36393 -3.66114,3.57708 -1.90828,4.03547 1.32073,0.34538 2.37893,-0.0861 3.69583,-1.50709 3.711,-4.00424 7.71042,-1.57312 4.98953,3.03297 -1.39328,2.35864 -1.38005,2.42344 1.06385,5.20689 2.44589,2.78571 4.02659,7.67678 3.0117,9.31891 -0.28796,0.46593 -2.27101,1.07894 -4.4068,1.36227 -3.15704,0.41878 -4.13837,0.95969 -5.24758,2.89236 -1.33116,2.31941 -1.29557,2.50919 1.46353,7.80257 1.55533,2.98392 2.8265,6.569 2.82482,7.96683 -0.004,3.38646 -2.72515,7.68964 -5.26567,8.32727 -1.58745,0.39842 -2.15345,1.18542 -2.51531,3.49748 -0.25681,1.64086 -0.67408,3.90337 -0.92728,5.02781 -0.82664,3.67143 -0.27536,9.29609 1.48284,15.12882 2.45938,8.15889 5.77238,17.84996 6.43,18.80877 2.39673,3.4946 6.5229,12.1627 6.5229,13.7032 0,2.3695 2.71184,10.189 3.96991,11.4471 0.51519,0.5152 0.93673,1.2702 0.93673,1.6777 0,0.4075 1.104,2.1349 2.45332,3.8385 1.34932,1.7037 2.45332,3.8968 2.45332,4.8737 0,1.7851 1.37502,4.9956 2.46589,5.7575 1.00842,0.7041 4.0763,7.2279 4.0763,8.6681 0,0.7552 1.03856,3.0699 2.30792,5.1436 1.26935,2.0738 3.34045,5.9785 4.60245,8.6771 3.34116,7.1447 8.82972,18.1071 11.76585,23.5 1.40477,2.5802 5.15613,9.9402 8.33636,16.3555 3.18025,6.4154 6.13139,12.3032 6.55809,13.0843 0.42671,0.7809 0.77583,1.8494 0.77583,2.3744 0,0.5249 0.87613,2.8299 1.94693,5.1222 1.70919,3.6587 9.4183,23.546 13.6617,35.2431 0.81584,2.2489 3.18015,10.1608 5.25405,17.5821 4.4518,15.9306 6.79129,24.0077 7.45346,25.7333 0.42727,1.1134 -3.29907,1.2533 -33.39038,1.2533 l -33.87132,0 -1.78934,-2.4202 c -0.98413,-1.3311 -1.78934,-3.3702 -1.78934,-4.5313 0,-1.8014 -3.93232,-10.5381 -5.88901,-13.084 -0.34569,-0.4497 -1.57321,-1.9976 -2.72784,-3.4397 -1.15463,-1.4421 -2.06156,-2.9141 -2.01538,-3.2711 0.0462,-0.357 -0.85468,-1.8255 -2.00189,-3.2632 -1.14719,-1.4377 -2.08581,-2.8002 -2.08581,-3.0275 0,-0.6806 -7.66641,-11.5093 -8.35716,-11.8043 -0.35109,-0.1499 -0.63835,-0.7057 -0.63835,-1.235 0,-0.5293 -0.82799,-1.8795 -1.83999,-3.0004 -1.01199,-1.1209 -3.38826,-4.0611 -5.28059,-6.5338 -1.89232,-2.4728 -4.28431,-5.4214 -5.31552,-6.5526 -1.03122,-1.1312 -5.00292,-5.5188 -8.82602,-9.75 -8.39341,-9.2895 -24.16019,-25.402 -24.85703,-25.402 -0.27575,0 -2.98369,1.7126 -6.01764,3.806 -16.85457,11.6286 -17.99528,12.7699 -33.79644,33.8116 -9.01397,12.0035 -16.98126,22.0386 -21.02334,26.4797 -1.58844,1.7452 -5.48062,6.3451 -8.64929,10.2221 -3.16868,3.877 -6.51351,7.8207 -7.43295,8.7637 -0.91943,0.9431 -4.20346,4.531 -7.29782,7.9734 l -5.62612,6.2586 -47.32473,0 c -26.028603,0 -47.324736,-0.2338 -47.324736,-0.5195 z M 290.37762,944.2601 c -0.49423,-1.48271 -1.99332,-1.69199 -1.99332,-0.27827 0,0.68716 0.52133,1.24938 1.15851,1.24938 0.63719,0 1.01286,-0.43701 0.83481,-0.97111 z m 50.10543,-40.5577 c 2.00539,-0.97296 4.56617,-2.71108 5.69061,-3.86252 1.12444,-1.15142 2.68843,-2.71514 3.47553,-3.47493 0.78712,-0.75979 1.24785,-1.64207 1.48952,-2.1635 l 0.60612,-1.30777 c 2.31299,-0.73934 11.51963,-31.6674 14.02011,-48.83542 1.98361,-13.61928 5.07817,-22.25024 11.36563,-31.69959 2.08915,-3.13979 4.16647,-6.32395 4.61625,-7.07593 1.07146,-1.79137 14.66856,-19.82089 16.54098,-21.93304 0.79753,-0.89964 3.56531,-3.74401 6.15064,-6.32084 2.58534,-2.57681 4.82921,-5.30929 5.41779,-5.95744 0.85585,-0.96526 1.04672,-1.13722 1.57412,-1.56581 0,0 1.56007,-2.09184 3.26492,-3.85007 1.70483,-1.75824 4.37282,-5.03678 5.92885,-7.28566 1.55605,-2.24888 3.03854,-4.27287 3.29445,-4.49776 2.5289,-2.22241 6.8659,-17.23486 7.67809,-26.57766 0.68985,-7.93554 1.98244,-17.60958 3.38726,-25.35098 5.10066,-28.1078 6.10068,-34.55102 6.53651,-42.11536 0.71384,-12.38944 -1.87959,-24.60393 -6.2112,-29.25337 -0.89857,-0.9645 -1.63377,-2.12017 -1.63377,-2.56815 0,-1.27517 -7.19506,-6.44768 -9.7492,-7.00866 -2.96307,-0.65079 -18.80142,6.14985 -22.94106,9.8504 -1.58559,1.4174 -5.64289,3.95352 -9.01621,5.6358 -3.37332,1.68229 -6.39399,3.47986 -6.71261,3.99459 -0.89929,1.45286 0.17314,4.76465 2.52668,7.80269 12.21452,15.76698 12.46084,16.3495 11.10642,26.26663 -2.06672,15.13277 -12.02756,51.02281 -19.85927,71.55522 -3.79348,9.94539 -11.57349,27.21712 -20.99677,46.61311 -3.7148,7.64618 -8.50153,17.58214 -10.63718,22.07989 -2.13566,4.49776 -4.74114,9.32917 -5.78997,10.73647 -1.98602,2.66479 -3.6388,3.09049 -18.73918,4.82648 -2.24888,0.25854 -7.03287,1.16488 -10.63107,2.01408 -10.56708,2.49389 -21.19534,4.18436 -35.30353,5.61512 l -13.22363,1.34106 3.94266,5.86939 c 5.2898,7.87483 7.19399,13.34389 8.59276,24.67949 0.64624,5.23712 1.7783,14.49002 2.51566,20.562 0.73739,6.07196 1.4351,11.14119 1.55051,11.26493 0.38081,0.4084 7.94506,-3.07822 10.27029,-4.73394 1.25466,-0.8934 2.77638,-1.62266 3.38161,-1.62056 1.82496,0.006 6.58606,4.98184 6.19564,6.47473 -0.30796,1.17769 0.54051,1.38662 6.26982,1.54379 3.64429,0.0999 9.01797,0.70488 11.94152,1.34421 7.5958,1.66112 17.5433,1.20627 22.1137,-1.01112 z M 111.40257,818.88514 c -0.0449,-1.63555 -0.0449,-1.63555 -0.74778,0 -0.38655,0.89955 -0.72304,2.18754 -0.74777,2.86221 -0.04,1.09036 0.0431,1.09036 0.74777,0 0.436,-0.67467 0.77251,-1.96266 0.74778,-2.86221 z m -0.79144,-8.06016 c -0.7874,-0.72574 -0.89622,-0.59964 -0.48558,0.56264 0.29108,0.82389 0.57193,1.92789 0.62411,2.45332 0.0521,0.52543 0.27067,0.27225 0.48558,-0.56263 0.21488,-0.83489 -0.0659,-1.93888 -0.62411,-2.45333 z m 0.047,-2.56885 c 0.75741,0.4681 1.37393,-2.04122 2.00972,-8.17978 0.2919,-2.81826 0.17588,-3.70769 -0.37336,-2.86222 -0.43826,0.67466 -0.80249,2.63294 -0.80937,4.35173 -0.006,1.71877 -0.56452,3.67707 -1.23918,4.35173 -0.67466,0.67466 -1.19761,1.84436 -1.1621,2.59934 0.0404,0.8588 0.21961,0.9881 0.47873,0.34539 0.22779,-0.56503 0.7208,-0.83781 1.09556,-0.60619 z m 202.4244,-144.2837 c -0.71354,-1.37982 -1.66337,-2.50876 -2.11073,-2.50876 -0.44736,0 -0.0118,1.564 0.96786,3.47554 0.97969,1.91155 1.92952,3.04049 2.11072,2.50876 0.18122,-0.53172 -0.25433,-2.09572 -0.96785,-3.47554 z m 16.94943,-8.03792 c -0.32448,-0.84561 -0.16634,-1.08026 0.46506,-0.69002 0.52621,0.3252 0.95675,0.20158 0.95675,-0.27475 0,-1.11647 -0.43773,-1.09086 -2.66886,0.15619 -1.0059,0.56222 -1.95072,1.08269 -2.0996,1.15661 -0.14889,0.0739 0.17555,0.96825 0.72098,1.98737 0.93326,1.74384 1.05428,1.76736 2.05452,0.39945 0.58457,-0.79945 0.84158,-2.03013 0.57115,-2.73485 z m 60.43196,-24.15691 c 6.45467,-3.12982 7.01998,-3.59132 6.38633,-5.21365 l -0.69517,-1.77989 -4.23952,1.61089 c -5.44892,2.07043 -10.32807,4.56355 -10.97288,5.60686 -0.46813,0.75746 1.10032,3.2445 2.03084,3.22022 0.22489,-0.005 3.59556,-1.55586 7.4904,-3.44443 z M 107.44825,887.51001 c 0.0392,-0.95268 0.23303,-1.14644 0.49408,-0.49408 0.23623,0.59032 0.20718,1.29566 -0.0645,1.5674 -0.27174,0.27174 -0.46503,-0.21126 -0.42951,-1.07332 z m 8.93096,-149.9451 c 0,-0.42324 0.36378,-0.99434 0.8084,-1.26914 0.46357,-0.28649 0.60066,0.0418 0.3214,0.76951 -0.54366,1.41673 -1.1298,1.67593 -1.1298,0.49963 z"
       id="path4147"
       inkscape:connector-curvature="0"
       sodipodi:nodetypes="csssssscsssssscscsssssssssssssscsssssssssssssscsssccssssssssscssssccscsssccccssssssssssssssssscsssssssssssssssssssssccsssscccssscsssssscssssssscssssssssscssssscsssssssssssccsscsssssscssssssssscssssssssssssssssssssssscsssscsscsssssssssscscscccsscssssssssssccssssssssssssssssssssscssscscsssscscscsscsscsssscscssscsscsscssssscsscscccccsscs" />
  </g>
</svg>
