<?xml version="1.0" encoding="UTF-8" standalone="no"?>
<!-- Created with Inkscape (http://www.inkscape.org/) -->

<svg
   xmlns:dc="http://purl.org/dc/elements/1.1/"
   xmlns:cc="http://creativecommons.org/ns#"
   xmlns:rdf="http://www.w3.org/1999/02/22-rdf-syntax-ns#"
   xmlns:svg="http://www.w3.org/2000/svg"
   xmlns="http://www.w3.org/2000/svg"
   xmlns:sodipodi="http://sodipodi.sourceforge.net/DTD/sodipodi-0.dtd"
   xmlns:inkscape="http://www.inkscape.org/namespaces/inkscape"
   width="210mm"
   height="297mm"
   viewBox="0 0 744.09448819 1052.3622047"
   id="svg2"
   version="1.1"
   inkscape:version="0.91 r13725"
   sodipodi:docname="mooseca-icon.svg"
   inkscape:export-filename="/home/luca/Scrivania/icon.png"
   inkscape:export-xdpi="3.968504"
   inkscape:export-ydpi="3.968504">
  <defs
     id="defs4" />
  <sodipodi:namedview
     id="base"
     pagecolor="#ffffff"
     bordercolor="#666666"
     borderopacity="1.0"
     inkscape:pageopacity="0.0"
     inkscape:pageshadow="2"
     inkscape:zoom="0.49497475"
     inkscape:cx="-54.313949"
     inkscape:cy="515.96117"
     inkscape:document-units="px"
     inkscape:current-layer="layer1"
     showgrid="false"
     showguides="true"
     inkscape:guide-bbox="true"
     inkscape:window-width="1366"
     inkscape:window-height="732"
     inkscape:window-x="1366"
     inkscape:window-y="0"
     inkscape:window-maximized="1">
    <sodipodi:guide
       position="371.42857,-280.00001"
       orientation="1,0"
       id="guide4149" />
    <sodipodi:guide
       position="668.57143,537.14287"
       orientation="0,1"
       id="guide4151" />
  </sodipodi:namedview>
  <metadata
     id="metadata7">
    <rdf:RDF>
      <cc:Work
         rdf:about="">
        <dc:format>image/svg+xml</dc:format>
        <dc:type
           rdf:resource="http://purl.org/dc/dcmitype/StillImage" />
        <dc:title />
      </cc:Work>
    </rdf:RDF>
  </metadata>
  <g
     inkscape:label="Livello 1"
     inkscape:groupmode="layer"
     id="layer1">
    <circle
       style="opacity:1;fill:#b3b3b3;fill-opacity:1;stroke:none;stroke-width:11.7;stroke-linecap:round;stroke-linejoin:round;stroke-miterlimit:4;stroke-dasharray:none;stroke-opacity:1"
       id="circle4141"
       cx="371.42856"
       cy="515.21936"
       r="342.85715" />
    <path
       style="opacity:1;fill:#4d4d4d;fill-opacity:1;stroke:none;stroke-width:11.69999981;stroke-linecap:round;stroke-linejoin:round;stroke-miterlimit:4;stroke-dasharray:none;stroke-opacity:1"
       d="M 429.19922 177.63281 C 430.4666 179.36102 431.82726 181.25087 433.30664 183.37109 C 438.11003 190.2552 442.54197 195.88672 443.1543 195.88672 C 443.76664 195.88672 444.11423 196.30388 443.92773 196.8125 C 443.74124 197.3211 443.21361 197.65445 442.75586 197.55273 C 442.29811 197.45101 441.92383 197.70053 441.92383 198.10742 C 441.92383 198.51431 442.18727 198.8457 442.50977 198.8457 C 442.83226 198.8457 443.50666 200.38015 444.00781 202.25391 C 444.50896 204.12768 445.85073 207.04005 446.98828 208.72656 C 449.26378 212.10018 455.24023 224.14549 455.24023 225.35742 C 455.24023 225.77701 456.29048 227.80989 457.57422 229.875 C 459.71055 233.31163 459.95693 234.36633 460.48438 242.31641 C 461.22898 253.5398 462.97031 261.68865 464.99023 263.4043 C 466.417 264.61613 466.52137 265.44202 466.44727 274.96875 C 466.40339 280.61133 466.0284 286.12103 465.61328 287.21289 C 465.19816 288.30475 464.85742 291.94033 464.85742 295.29102 C 464.85742 298.82334 464.50875 301.73343 464.02539 302.2168 C 463.53719 302.70499 463.21871 305.43108 463.25781 308.79492 C 463.29459 311.95424 462.99446 314.93474 462.5918 315.41992 C 462.18913 315.9051 461.82344 317.58904 461.77734 319.16211 C 461.73128 320.73518 461.4763 322.35678 461.21094 322.76367 C 460.94559 323.17056 460.28386 324.83338 459.74219 326.46094 C 459.20053 328.08849 457.55014 330.70239 456.07422 332.26953 C 448.65556 340.14665 447.76342 340.88867 445.69141 340.88867 C 443.3022 340.88867 440.01135 338.58231 439.32812 336.42969 C 439.0732 335.62653 438.44557 334.96875 437.93164 334.96875 C 437.41769 334.96875 435.87093 333.3878 434.49414 331.45508 C 433.11735 329.52236 430.43154 326.27663 428.52734 324.24219 C 426.62315 322.20774 423.82189 318.12824 422.30273 315.17578 C 418.98643 308.73064 416.3181 305.95154 410.68945 303.08984 C 404.51635 299.95133 404.19531 300.07525 404.19531 305.57422 C 404.19531 310.9466 406.04706 315.23024 408.53125 315.60156 C 410.32745 315.87004 410.63546 317.06122 409.06445 317.66406 C 407.78737 318.15412 408.30069 319.53272 414.4043 332.00977 C 418.38405 340.1452 418.58017 340.81802 418.86719 347.35742 C 419.10064 352.67619 418.91078 354.58407 418.01758 355.94727 C 416.71251 357.93905 409.85777 360.49818 407.98828 359.69141 C 406.49169 359.04556 400.9003 358.01021 394.57812 357.20898 C 388.96032 356.49703 386.43945 355.7692 386.43945 354.85742 C 386.43945 354.49799 386.10611 354.20508 385.69922 354.20508 C 385.29234 354.20508 384.96094 354.88877 384.96094 355.72656 C 384.96094 356.56436 384.62759 357.04444 384.2207 356.79297 C 383.81381 356.5415 383.48047 355.52446 383.48047 354.53125 C 383.48047 353.53804 383.14712 352.72461 382.74023 352.72461 C 382.33334 352.72461 382 353.22364 382 353.83398 C 382 354.44431 381.6473 354.94336 381.21484 354.94336 C 380.78238 354.94336 380.53287 354.24838 380.66016 353.39844 C 380.83396 352.23805 380.10241 351.40974 377.72656 350.07031 C 375.98636 349.08925 374.24915 348.28516 373.86523 348.28516 C 372.04407 348.28516 365.11637 344.44768 363.13672 342.3418 C 360.16802 339.1838 355.78702 336.44922 353.69727 336.44922 C 351.2207 336.44922 349.0975 334.68954 347.24219 331.10156 C 344.91415 326.59933 343.56255 325.30491 341.41992 325.52734 C 339.74993 325.70069 339.54191 325.44058 339.44531 323.04883 C 339.38593 321.57879 338.59447 319.33116 337.68555 318.05469 C 336.08788 315.81095 335.84969 315.73438 330.55078 315.73438 C 325.38017 315.73438 324.99734 315.85031 323.76953 317.76953 C 321.96414 320.59156 320.54118 321.60141 318.33984 321.62891 C 316.25843 321.65486 312.47384 320.12115 312.46484 319.24805 C 312.46166 318.94288 311.79425 318.69336 310.98047 318.69336 C 310.1667 318.69336 309.5 318.36001 309.5 317.95312 C 309.5 317.54625 308.83526 317.21484 308.02148 317.21484 C 307.20771 317.21484 306.54102 316.8815 306.54102 316.47461 C 306.54102 316.06772 305.75337 315.73438 304.79102 315.73438 C 303.82867 315.73438 302.1947 315.06963 301.16016 314.25586 C 300.12561 313.44208 298.99897 312.75818 298.65625 312.73828 C 298.31354 312.71833 296.70177 311.38986 295.07422 309.78516 C 293.44666 308.18047 291.70002 306.86628 291.19141 306.86328 C 290.6828 306.86038 290.26562 306.52408 290.26562 306.11719 C 290.26563 304.64938 288.88201 305.41749 288.59766 307.04297 C 288.31876 308.63722 288.28397 308.64367 287.75391 307.22656 C 286.60512 304.15532 285.92994 303.47648 281.68164 301.12109 C 274.95099 297.3894 272.40492 296.3553 270.91797 296.74414 C 270.16601 296.94078 269.55078 296.82912 269.55078 296.49609 C 269.55078 295.87662 265.74962 295.06631 261.12305 294.69922 C 259.40341 294.56277 258.39404 294.85044 258.12305 295.55664 C 257.333 297.61547 257.72766 301.36756 258.91211 303.05859 C 259.95461 304.54698 265.19492 308.41356 269.71484 311.0293 C 270.51589 311.49288 272.40171 313.07382 273.90625 314.54297 C 275.4108 316.01211 276.9161 317.21484 277.25 317.21484 C 277.84628 317.21484 279.83836 318.72394 286.03906 323.87305 C 290.82702 327.84901 293.63481 329.69516 299.39648 332.6582 C 302.30928 334.15615 307.08733 336.95404 310.01562 338.875 C 312.94391 340.79595 315.50818 342.36719 315.71289 342.36719 C 315.91759 342.36719 317.56437 343.36527 319.37305 344.58594 C 321.18174 345.8066 322.94704 346.82847 323.29492 346.85547 C 323.6428 346.88248 325.42486 348.04634 327.25586 349.44141 C 329.08686 350.83648 331.81871 352.8056 333.32617 353.81836 C 334.83362 354.83111 337.54622 357.92762 339.35547 360.69922 C 341.16472 363.4708 343.17766 366.18087 343.82812 366.7207 C 344.47858 367.26054 345.01172 368.02796 345.01172 368.42773 C 345.01172 368.82751 346.00981 370.63467 347.23047 372.44336 C 348.45114 374.25204 349.44922 375.91681 349.44922 376.14258 C 349.44922 376.36833 350.3762 377.93257 351.50781 379.61914 C 352.63942 381.3057 354.1452 383.92114 354.85547 385.42969 C 355.56573 386.93824 356.47207 388.37374 356.86914 388.61914 C 357.26622 388.86454 358.2287 390.45947 359.00781 392.16406 C 359.78691 393.86867 361.28512 396.52641 362.33594 398.07031 C 363.38677 399.61421 364.24609 401.15514 364.24609 401.49414 C 364.24609 401.83313 364.72049 402.50473 365.30078 402.98633 C 367.25602 404.60904 368.92135 411.5718 368.49023 416.32617 C 368.23355 419.15699 368.36192 420.67939 368.84961 420.57617 C 369.26757 420.48771 369.74898 420.79391 369.91992 421.25586 C 370.25962 422.17386 366.21791 423.12172 362.02539 423.10742 C 356.18123 423.08743 350.93029 422.60091 350.92969 422.08008 C 350.9293 421.77491 350.26299 421.52539 349.44922 421.52539 C 348.63544 421.52539 347.9707 421.19204 347.9707 420.78516 C 347.9707 420.37827 347.304 420.04688 346.49023 420.04688 C 345.67645 420.04688 345.01172 419.71353 345.01172 419.30664 C 345.01172 418.89975 344.59455 418.5645 344.08594 418.5625 C 343.57733 418.56062 342.0972 417.56254 340.79688 416.34375 C 339.49655 415.12498 337.9156 414.12695 337.2832 414.12695 C 336.65081 414.12695 336.13281 413.79556 336.13281 413.38867 C 336.13281 412.98178 335.46807 412.64844 334.6543 412.64844 C 333.84052 412.64844 333.17383 412.31508 333.17383 411.9082 C 333.17383 411.50131 332.67479 411.16797 332.06445 411.16797 C 331.45412 411.16797 330.95508 410.83658 330.95508 410.42969 C 330.95508 410.0228 330.45603 409.68945 329.8457 409.68945 C 329.23537 409.68945 328.73633 409.35611 328.73633 408.94922 C 328.73633 408.54234 328.08406 408.20898 327.28906 408.20898 C 326.49406 408.20898 324.0081 406.46233 321.76367 404.32617 C 317.0062 399.79821 310.98047 388.91846 310.98047 384.85742 C 310.98047 383.48471 310.33667 381.21758 309.55078 379.81836 C 308.76489 378.41915 307.63563 375.8271 307.04102 374.06055 C 306.28276 371.80784 305.49372 370.77908 304.40039 370.61328 C 302.63047 370.34487 302.25598 369 303.95117 369 C 305.24452 369 305.3085 368.70003 304.37695 366.95508 C 303.99976 366.24854 303.50943 365.089 303.28906 364.37695 C 303.06869 363.66489 302.21327 363.08203 301.38672 363.08203 C 300.56017 363.08203 299.88281 362.74869 299.88281 362.3418 C 299.88281 361.93491 300.38185 361.60156 300.99219 361.60156 C 302.50822 361.60156 302.39262 361.11057 300.36133 358.91992 C 299.10511 357.56513 298.02584 357.11249 296.47852 357.28906 C 294.63146 357.49984 294.34046 357.83958 294.38086 359.75195 C 294.40663 360.97261 294.49041 367.72427 294.56641 374.75586 C 294.68128 385.38977 294.89144 387.60032 295.81445 387.88867 C 299.23648 388.95775 299.57 389.22444 297.84961 389.52539 C 296.04976 389.84025 295.52821 391.19336 297.20703 391.19336 C 298.24282 391.19336 299.11431 393.34449 299.13281 395.94531 C 299.13837 396.72704 299.60381 397.89083 300.16602 398.5332 C 300.72822 399.17557 301.41632 400.45169 301.69531 401.36719 C 302.10379 402.70762 301.91414 403.03125 300.72266 403.03125 C 299.90888 403.03125 299.0413 402.39539 298.79492 401.61914 C 298.54855 400.84289 296.77854 398.82532 294.86133 397.13477 C 289.14321 392.09273 288.78711 391.89524 288.78711 393.7832 C 288.78711 394.39353 288.4178 394.89258 287.9668 394.89258 C 287.4651 394.89258 287.32406 394.18572 287.60352 393.07227 C 288.21142 390.65017 286.38772 389.71484 281.06641 389.71484 C 277.93529 389.71484 276.59584 390.06822 275.4707 391.19336 C 271.45184 395.21222 275.77463 405.18264 286.16992 415.87109 C 289.84735 419.65222 293.5202 423.58929 294.33398 424.61914 C 300.1609 431.99323 307.79644 439.24823 315.04883 444.30273 C 319.52461 447.4221 324.28691 451.07043 325.63086 452.41016 C 326.97482 453.74989 330.63577 456.07495 333.76758 457.57617 C 342.11974 461.57976 347.6159 465.60193 350.16992 469.58203 C 353.6712 475.03831 353.45072 475.36296 345.93555 475.82227 C 342.37527 476.03986 336.05078 476.4273 331.88086 476.68359 C 325.39319 477.08231 323.58771 476.925 319.36523 475.59961 C 316.65123 474.74773 313.56996 474.04888 312.51953 474.04688 C 311.46912 474.04437 309.77894 473.58858 308.76172 473.03516 C 302.14503 469.43535 298.40391 467.62911 295.81445 466.78125 C 291.67255 465.42509 286.90147 463.00639 285.15039 461.375 C 284.33563 460.61594 283.33341 459.99609 282.92188 459.99609 C 282.51035 459.99609 280.95668 459.31228 279.46875 458.47656 C 276.04584 456.55403 272.23175 456.77155 271.92578 458.9082 C 271.66835 460.70584 278.45837 467.95397 283.11133 470.84766 C 284.8087 471.90327 288.36108 474.82028 291.00586 477.33203 C 293.65064 479.84378 296.98019 482.35816 298.4043 482.91797 C 299.82841 483.47779 302.32554 484.83336 303.95508 485.93164 C 305.58461 487.02991 309.07986 488.48122 311.72266 489.15625 C 314.36546 489.83128 318.39628 491.49315 320.67773 492.84961 C 328.73521 497.64034 330.04279 497.8327 352.14844 497.45312 C 363.07426 497.26552 374.51084 496.76912 377.5625 496.34961 C 393.82708 494.11371 402.07847 493.23969 417.64258 492.10938 L 423.32422 491.69727 L 427.75781 495.63672 C 430.19636 497.80295 433.27088 500.50191 434.58984 501.63477 L 436.98633 503.69336 L 434.7793 506.07227 C 433.56558 507.38074 432.00383 509.28356 431.30859 510.30078 C 430.61335 511.318 429.05922 513.48182 427.85352 515.10938 C 426.64783 516.73693 424.91903 519.51383 424.01172 521.2793 C 423.10441 523.04478 421.51897 524.92899 420.49023 525.4668 C 417.55964 526.99887 414.86469 530.32677 413.42969 534.18359 C 412.70564 536.1296 411.82959 537.89602 411.48438 538.10938 C 410.75982 538.55719 407.1543 546.23398 407.1543 547.32812 C 407.1543 548.55848 403.75977 553.45001 401.28711 555.7832 C 400.00216 556.99567 398.23889 559.41281 397.36914 561.1543 C 395.44459 565.00785 394.50952 565.88514 389.76953 568.27344 C 387.73509 569.29852 384.4176 571.82019 382.39844 573.87891 C 380.3793 575.93763 378.36184 577.62305 377.91406 577.62305 C 377.46628 577.62305 376.14213 578.62113 374.97266 579.8418 C 373.80319 581.06246 372.54284 582.0625 372.17188 582.0625 C 371.80092 582.0625 370.59209 582.97676 369.48438 584.0957 C 368.37665 585.21465 365.50788 587.62798 363.10938 589.45898 C 353.76274 596.59412 339.41547 612.77356 328.9707 627.95703 C 327.29371 630.39487 326.76635 631.86309 327.04492 633.32031 C 327.39135 635.13255 327.21931 635.32812 325.26562 635.32812 C 323.53557 635.32812 322.59147 636.03143 320.55469 638.8418 C 316.53992 644.38144 315.20298 647.39515 316.93555 646.99805 C 317.42396 646.8861 317.97562 647.21014 318.16211 647.71875 C 318.37795 648.30741 317.8064 648.64453 316.58984 648.64453 C 315.53871 648.64453 314.67969 648.97592 314.67969 649.38281 C 314.67969 649.7897 315.17872 650.12305 315.78906 650.12305 C 316.39939 650.12305 316.89844 650.45639 316.89844 650.86328 C 316.89844 651.27017 316.08165 651.60352 315.08398 651.60352 C 312.58936 651.60352 308.85085 657.13317 308.08984 661.94727 C 307.7723 663.95605 307.11856 666.07216 306.63867 666.65039 C 305.09137 668.51476 303.58265 675.93351 303.56055 681.78516 C 303.54806 685.08846 302.9364 689.65957 302.10352 692.66211 C 300.26381 699.29427 300.27057 702.13811 302.13867 707.52734 C 304.25714 713.63881 306.54102 722.29141 306.54102 724.20117 C 306.54102 726.02343 309.57816 732.64228 312.43555 737.04883 C 313.49092 738.67638 314.83495 741.00786 315.42188 742.22852 C 316.0088 743.44919 317.74868 746.34735 319.28906 748.66992 C 320.82945 750.9925 322.42707 753.82301 322.83984 754.95898 C 324.48152 759.477 326.67046 763.03476 328.60938 764.33789 C 329.73054 765.09142 331.35155 766.78079 332.21094 768.0918 C 334.25865 771.21562 338.43115 773.18654 341.94141 772.6875 C 343.42574 772.47648 346.22168 772.06881 348.1543 771.78125 C 350.09883 771.49192 353.07248 771.60383 354.8125 772.0332 C 362.96617 774.04525 366.50235 774.56645 368.91797 774.11328 C 372.32087 773.47489 376.08203 769.9796 376.08203 767.45508 C 376.08203 766.39767 376.74083 764.8744 377.54492 764.07031 C 379.0472 762.56803 380.07589 762.53856 399.38672 763.44531 C 400.60739 763.50262 403.53508 762.99572 405.89453 762.32031 C 408.254 761.6449 411.19973 761.09375 412.43945 761.09375 C 413.67917 761.09375 415.57622 760.49187 416.65625 759.75781 C 417.73628 759.02375 420.03634 757.8085 421.76562 757.05664 C 424.18384 756.00526 424.9082 755.28918 424.9082 753.95312 C 424.9082 752.9977 425.24155 752.21484 425.64844 752.21484 C 426.05533 752.21484 426.38867 752.71389 426.38867 753.32422 C 426.38867 753.93456 426.72202 754.43555 427.12891 754.43555 C 427.5358 754.43555 427.86914 753.64276 427.86914 752.67383 C 427.86914 751.52975 428.77693 750.2185 430.45898 748.93555 C 431.88351 747.849 433.58664 745.89511 434.24414 744.59375 C 434.90164 743.2924 436.09708 741.50843 436.90039 740.62891 C 439.3175 737.98247 441.98545 732.11622 442.68945 727.9043 C 443.8737 720.81916 448.99689 716.32405 455.22266 716.9043 C 456.78051 717.04949 458.83558 717.68642 459.79102 718.32031 C 461.39097 719.38179 461.54905 720.06411 461.7832 726.96484 C 462.02881 734.20308 462.10834 734.5079 464.11328 735.93555 C 465.64686 737.02756 466.2982 738.23513 466.60938 740.56055 C 467.67501 748.52434 468.05304 749.98082 469.36914 751.17188 C 470.14273 751.87196 470.77734 752.87417 470.77734 753.39844 C 470.77734 753.9227 471.79709 754.95207 473.04492 755.6875 C 474.29269 756.42257 476.31176 758.76706 477.53125 760.89648 C 479.00072 763.46238 480.61949 765.18046 482.33008 765.99219 C 484.13779 766.85001 485.03753 767.85161 485.33398 769.33398 C 485.81573 771.7428 485.99414 771.78879 490.02344 770.53125 C 492.3177 769.81522 492.9707 769.24078 492.9707 767.94141 C 492.9707 765.80133 493.89231 765.79807 494.83008 767.93555 C 495.40321 769.24181 496.27387 769.65089 498.875 769.83594 C 500.69804 769.96564 502.61236 770.42282 503.12891 770.85156 C 503.77769 771.38998 504.35348 771.39461 504.99219 770.86523 C 505.97866 770.0477 511.53036 772.05435 515.44922 774.64453 C 517.05049 775.70291 517.70818 775.80024 518.54297 775.10742 C 519.12605 774.62349 519.60352 774.52153 519.60352 774.87891 C 519.60352 775.2363 520.62468 775.98062 521.87305 776.5332 C 523.12141 777.08577 524.41904 778.26259 524.75586 779.14844 C 525.09267 780.0343 525.92397 781.21923 526.60352 781.7832 C 528.67181 783.4997 529.96094 786.73923 529.96094 790.21875 C 529.96094 793.54771 528.05554 802.25619 527.02734 803.63086 C 525.94019 805.08436 525.60969 807.96359 526.36719 809.37891 C 526.90823 810.38969 526.89765 811.05935 526.33008 811.62695 C 525.88549 812.07154 525.52148 813.68092 525.52148 815.20312 C 525.52148 816.72527 525.18814 818.17626 524.78125 818.42773 C 524.53401 818.58054 524.33223 819.9984 524.19922 822.00586 A 342.85715 342.85715 0 0 0 588.1543 780.625 C 588.30989 780.22684 588.50491 779.88399 588.76758 779.59375 C 590.14384 778.07296 590.01096 774.89576 588.27344 767.7168 C 587.58022 764.85257 587.68434 763.69871 588.96875 759.94922 C 589.79844 757.52712 590.65538 754.04949 590.87305 752.22266 C 591.2581 748.99094 593.67067 745.80714 595.07617 746.67578 C 595.40653 746.87995 596.50589 746.7311 597.51953 746.3457 C 599.94536 745.4234 600.60218 742.27846 599.24219 738.0957 C 598.65834 736.29997 597.62593 732.33291 596.94727 729.28125 C 596.26855 726.22958 595.40032 723.15575 595.01758 722.44922 C 594.63484 721.74268 594.32031 719.55758 594.32031 717.59375 C 594.32031 714.5921 593.96733 713.68396 592.10156 711.89648 C 588.41393 708.36347 589.80883 702.56521 593.53516 705.9375 C 594.73831 707.02633 595.60798 707.08873 600.34961 706.43164 C 603.33875 706.01741 606.01326 705.91149 606.29297 706.19727 C 606.57267 706.48306 607.40603 708.54922 608.14453 710.78711 L 609.48633 714.85547 L 612.97266 714.81055 C 615.15417 714.78256 616.97546 714.29786 617.83984 713.51562 C 618.59946 712.82816 619.77707 712.26562 620.45703 712.26562 C 621.19547 712.26562 621.69336 711.67618 621.69336 710.80273 C 621.69336 709.99833 622.50417 708.81074 623.49414 708.16211 C 625.72063 706.70324 626.80838 707.21729 631.31055 711.85742 C 634.4831 715.12719 634.78726 715.26713 637.7793 714.8418 C 640.63267 714.43617 640.99883 714.56961 641.7832 716.29102 C 642.39492 717.63367 643.21957 718.18555 644.61719 718.18555 C 645.32925 718.18555 646.04733 718.42861 646.76367 718.85742 A 342.85715 342.85715 0 0 0 713.42773 532.35156 L 713.42773 490.9668 A 342.85715 342.85715 0 0 0 692.61133 395.87695 C 692.12904 396.00582 691.73139 396.17293 691.54492 396.35938 C 691.07074 396.83354 689.13698 396.53719 685.96484 395.50586 C 681.30092 393.9895 681.01295 393.97778 678.58984 395.20312 C 677.20293 395.90447 672.73881 396.9719 668.66992 397.57422 C 664.60104 398.17654 660.2299 398.94717 658.95508 399.28711 C 657.68026 399.62701 655.28534 399.65765 653.63281 399.35547 C 651.98028 399.05325 650.35901 399.06402 650.03125 399.38086 C 648.83591 400.53628 639.29586 400.62098 637.04102 399.49609 C 635.22508 398.59021 634.18633 398.56383 630.56641 399.33203 C 628.19504 399.83532 624.97947 400.09718 623.41992 399.91211 C 621.86043 399.72705 618.91921 400.0151 616.88477 400.55273 C 614.85032 401.09036 611.43891 401.60602 609.30273 401.69922 C 607.16655 401.79247 605.41797 402.16626 605.41797 402.5293 C 605.41797 402.89235 604.92565 403.00032 604.32422 402.76953 C 603.17908 402.33009 597.48676 403.97454 594.32031 405.66016 C 585.44552 410.38451 585.25788 410.42951 574.14062 410.41211 C 564.83895 410.39756 563.40484 410.22836 561.76953 408.94922 C 560.75234 408.15354 559.48921 407.49533 558.96094 407.48633 C 558.43272 407.47728 556.62187 406.80401 554.9375 405.99023 C 553.25319 405.17646 550.59033 404.50977 549.01953 404.50977 C 547.44879 404.50977 544.78398 403.84503 543.09961 403.03125 C 541.4153 402.21748 539.44754 401.55078 538.72461 401.55078 C 537.31248 401.55078 531.44937 404.60438 528.56445 406.8418 C 527.59413 407.59438 526.23099 408.20898 525.53516 408.20898 C 524.16813 408.20898 521.66378 410.57453 521.91211 411.63086 C 522.22928 412.97976 520.89302 416.28876 519.53516 417.51758 C 518.75796 418.22092 518.12109 419.20501 518.12109 419.70508 C 518.12109 420.20516 516.78534 421.73394 515.15234 423.10352 C 513.51934 424.47311 510.77262 426.79879 509.04883 428.26953 C 507.32498 429.74028 504.66645 431.32123 503.14062 431.7832 C 501.6148 432.24518 499.26145 432.9564 497.91016 433.36328 C 496.55888 433.77017 491.89788 434.10156 487.55273 434.10156 L 479.65234 434.10156 L 479.6582 431.32812 C 479.66074 429.8023 480.12419 427.67141 480.6875 426.5918 C 481.25081 425.5122 482.12217 423.34642 482.625 421.78125 C 483.12788 420.21608 483.94095 418.4365 484.43164 417.82617 C 484.92234 417.21583 485.87389 415.5147 486.54492 414.04492 C 487.21594 412.57515 488.27079 410.95222 488.88867 410.43945 C 489.50649 409.92669 490.01172 409.16914 490.01172 408.75586 C 490.01172 408.34257 491.3364 406.47026 492.95508 404.59375 C 498.8818 397.72303 500.87792 395.17823 503.47656 391.19336 C 504.93591 388.95548 508.18337 385.29453 510.69336 383.05664 C 516.96726 377.46288 533.49364 361.10944 536.4707 357.54883 C 537.81352 355.9428 539.7672 354.06849 540.8125 353.38281 C 541.85775 352.69712 544.42207 350.49905 546.50977 348.5 C 548.59748 346.50094 551.47045 344.07083 552.89453 343.09766 C 564.44804 335.20252 587.46054 305.55653 586.38867 299.94922 C 586.06505 298.25647 586.26378 297.98047 587.80078 297.98047 C 590.29491 297.98047 591.35812 296.65598 590.86133 294.17188 C 590.48368 292.28376 590.64109 292.06055 592.35742 292.06055 C 593.91899 292.06055 594.97227 291.03375 598 286.54688 C 600.04687 283.51359 601.7207 280.81737 601.7207 280.55664 C 601.7207 280.29592 602.39035 279.14184 603.20898 277.99219 C 604.02761 276.84253 605.65333 274.08346 606.82227 271.86133 C 607.21306 271.11841 608.02968 269.8994 608.98828 268.53125 A 342.85715 342.85715 0 0 0 592.29492 252.98242 C 592.33383 257.76922 590.65568 265.34751 588.35156 270.41406 C 587.56713 272.1389 586.92383 274.03425 586.92383 274.625 C 586.92383 275.21576 586.63819 275.87678 586.28711 276.09375 C 585.93603 276.31073 585.22655 277.99446 584.71094 279.83594 C 584.19539 281.67742 583.48289 283.18359 583.12891 283.18359 C 582.77488 283.18359 582.48633 283.85029 582.48633 284.66406 C 582.48633 285.47784 582.15298 286.14258 581.74609 286.14258 C 581.3392 286.14258 581.00586 286.80927 581.00586 287.62305 C 581.00586 288.43682 580.67251 289.10156 580.26562 289.10156 C 579.85874 289.10156 579.52734 289.76825 579.52734 290.58203 C 579.52734 291.3958 579.194 292.06055 578.78711 292.06055 C 578.38022 292.06055 578.04688 292.72724 578.04688 293.54102 C 578.04687 294.35479 577.71353 295.01953 577.30664 295.01953 C 576.89975 295.01953 576.56836 295.68622 576.56836 296.5 C 576.56836 297.31377 576.23501 297.98047 575.82812 297.98047 C 575.42124 297.98047 575.08789 298.4795 575.08789 299.08984 C 575.08789 299.70017 574.83835 300.20489 574.5332 300.21289 C 574.22804 300.22084 572.22626 301.88561 570.08398 303.91211 C 567.94171 305.93859 565.69257 307.59766 565.08789 307.59766 C 564.48321 307.59766 562.74221 308.86925 561.2168 310.42383 C 557.87617 313.82841 556.25782 314.51911 554.37891 313.3457 C 553.5997 312.85909 552.69672 312.74436 552.37305 313.08984 C 552.04937 313.43531 552.20035 313.86718 552.70898 314.04883 C 554.54817 314.70568 553.57771 315.7304 551.22852 315.61328 C 549.90612 315.54736 547.27676 315.94172 545.38477 316.48828 C 542.32852 317.37116 541.731 317.34215 540.02539 316.22461 C 536.04255 313.61493 534.50293 305.10549 537.35742 301.47656 C 538.1712 300.44201 538.83789 299.35097 538.83789 299.05273 C 538.83789 298.75449 540.01597 297.14273 541.45508 295.4707 C 542.89419 293.79868 545.76983 290.43353 547.8457 287.99219 C 553.94237 280.82214 578.01407 256.85894 586.87695 248.86328 A 342.85715 342.85715 0 0 0 510.14648 201.94141 C 509.70012 202.76572 509.23875 203.64553 508.77734 204.58594 C 507.23176 207.73613 505.70584 210.42492 505.38672 210.56055 C 504.37426 210.99094 504.76135 212.16211 505.91602 212.16211 C 506.52639 212.16211 507.02734 212.45032 507.02734 212.80078 C 507.02734 213.15124 506.19498 213.27843 505.17773 213.08398 C 503.88728 212.83729 503.32812 213.05805 503.32812 213.8125 C 503.32813 215.66461 500.47249 217.58858 496.83203 218.18945 C 494.91205 218.50635 492.22539 218.98695 490.86328 219.25781 C 487.94096 219.83892 483.16921 218.4408 481.40039 216.48633 C 480.72114 215.73574 479.75484 215.12305 479.25391 215.12305 C 478.75298 215.12305 476.30798 213.16035 473.82031 210.76367 C 471.33264 208.36697 469.29688 206.86985 469.29688 207.43555 C 469.29688 208.00124 468.95761 208.46484 468.54297 208.46484 C 468.1281 208.46484 467.97849 207.70742 468.21094 206.78125 C 468.87992 204.11582 465.68645 199.95703 462.9707 199.95703 C 461.2139 199.95703 460.73862 199.60094 460.53125 198.13086 C 460.38962 197.12675 459.64106 195.75514 458.86719 195.08398 C 458.09333 194.4128 457.46094 193.48203 457.46094 193.01562 C 457.46094 191.82093 455.78976 188.97471 454.66992 188.25977 C 454.15295 187.9296 453.92432 187.34374 454.16211 186.95898 C 454.39991 186.57423 454.07363 186.06052 453.4375 185.81641 C 452.80139 185.57231 452.28125 184.80485 452.28125 184.11133 C 452.28125 183.65483 451.9781 182.94581 451.54883 182.26367 A 342.85715 342.85715 0 0 0 429.19922 177.63281 z M 475.03125 213.69531 C 476.83399 213.74138 476.89704 213.81941 475.58594 214.38281 C 473.56523 215.25112 472.99609 215.25112 472.99609 214.38281 C 472.99609 213.97592 473.91227 213.66671 475.03125 213.69531 z M 475.34375 518.45117 C 479.5342 518.44156 480.61127 518.71827 482.46875 520.28125 C 484.95039 522.36941 485.90786 525.66221 484.51367 527.31641 C 483.99924 527.92675 483.37417 529.00177 483.125 529.70508 C 482.87584 530.40839 480.9314 531.82364 478.80469 532.84961 C 473.81792 535.25527 470.52577 535.26991 468.1543 532.89844 C 466.84347 531.5876 466.33789 530.27688 466.33789 528.18164 C 466.33789 525.09874 468.16134 519.91201 469.56445 519.00586 C 470.02734 518.70692 472.62851 518.45717 475.34375 518.45117 z "
       id="path4153" />
    <circle
       r="342.85715"
       cy="515.21936"
       cx="371.42856"
       id="circle4155"
       style="opacity:1;fill:none;fill-opacity:1;stroke:#4d4d4d;stroke-width:40;stroke-linecap:round;stroke-linejoin:round;stroke-miterlimit:4;stroke-dasharray:none;stroke-opacity:1" />
    <circle
       style="opacity:1;fill:#b3b3b3;fill-opacity:1;stroke:none;stroke-width:11.69999981;stroke-linecap:round;stroke-linejoin:round;stroke-miterlimit:4;stroke-dasharray:none;stroke-opacity:1"
       id="path4143"
       cx="575.40814"
       cy="471.65076"
       r="9.4701805" />
    <path
       style="fill:none;fill-rule:evenodd;stroke:#b3b3b3;stroke-width:4.9000001;stroke-linecap:butt;stroke-linejoin:miter;stroke-miterlimit:4;stroke-dasharray:none;stroke-opacity:1"
       d="m 573.57143,472.36221 c 6.10912,17.9893 -10.11292,35.55758 -7.84979,56.48177 3.38069,31.25687 9.25683,34.23995 4.41657,56.48603 -6.28856,28.90251 -3.94698,51.63994 19.19427,73.55485 18.40153,17.42635 28.74152,62.13288 28.74152,62.13288"
       id="path4145"
       inkscape:connector-curvature="0"
       sodipodi:nodetypes="csssc" />
  </g>
</svg>
